<svg id="visual" viewBox="0 0 600 600" width="600" height="600" xmlns="http://www.w3.org/2000/svg" xmlns:xlink="http://www.w3.org/1999/xlink" version="1.1"><g transform="translate(325.6649846520073 330.7239057558856)"><path d="M123.4 -182.6C138.3 -159.1 113.7 -94 134.6 -41.1C155.5 11.9 221.8 52.8 217.8 72.4C213.7 92.1 139.2 90.5 91.1 109.1C43.1 127.7 21.6 166.3 -2 169C-25.5 171.7 -50.9 138.4 -110.4 123.6C-169.8 108.7 -263.2 112.3 -269 88.8C-274.9 65.2 -193.1 14.5 -168 -52.1C-143 -118.8 -174.6 -201.4 -156.1 -223.7C-137.5 -246 -68.8 -208 -7.2 -198C54.3 -188 108.5 -206.1 123.4 -182.6" fill="#79ffe1"></path></g></svg>