<svg id="visual" viewBox="0 0 900 600" width="900" height="600" xmlns="http://www.w3.org/2000/svg" xmlns:xlink="http://www.w3.org/1999/xlink" version="1.1"><path d="M0 91L82 103L164 67L245 79L327 37L409 73L491 85L573 67L655 67L736 73L818 91L900 91L900 0L818 0L736 0L655 0L573 0L491 0L409 0L327 0L245 0L164 0L82 0L0 0Z" fill="#cacaca"></path><path d="M0 157L82 145L164 163L245 175L327 103L409 175L491 145L573 127L655 187L736 193L818 151L900 163L900 89L818 89L736 71L655 65L573 65L491 83L409 71L327 35L245 77L164 65L82 101L0 89Z" fill="#ebebeb"></path><path d="M0 235L82 199L164 301L245 247L327 211L409 307L491 247L573 241L655 307L736 301L818 205L900 277L900 161L818 149L736 191L655 185L573 125L491 143L409 173L327 101L245 173L164 161L82 143L0 155Z" fill="#ffffff"></path><path d="M0 445L82 313L164 385L245 439L327 439L409 385L491 475L573 337L655 457L736 511L818 355L900 397L900 275L818 203L736 299L655 305L573 239L491 245L409 305L327 209L245 245L164 299L82 197L0 233Z" fill="#ebebeb"></path><path d="M0 601L82 601L164 601L245 601L327 601L409 601L491 601L573 601L655 601L736 601L818 601L900 601L900 395L818 353L736 509L655 455L573 335L491 473L409 383L327 437L245 437L164 383L82 311L0 443Z" fill="#cacaca"></path></svg>